<svg xmlns="http://www.w3.org/2000/svg" width="15.97" height="16" viewBox="0 0 15.97 16">
  <defs>
    <style>
      .cls-1 {
        fill: #151515;
        fill-rule: evenodd;
      }
    </style>
  </defs>
  <path id="_-e-kz-bag" data-name="-e-kz-bag" class="cls-1" d="M1600.63,52.773a1.013,1.013,0,0,0,.35-0.57l2-10a0.813,0.813,0,0,0-.01-0.437,1.106,1.106,0,0,0-.2-0.391,0.923,0.923,0,0,0-.35-0.281A0.955,0.955,0,0,0,1602,41h-2a0.943,0.943,0,0,0-.7.3,0.974,0.974,0,0,0,0,1.406,0.943,0.943,0,0,0,.7.3h0.78l-1.59,8h-8.38l-1.59-8H1590a0.943,0.943,0,0,0,.7-0.3,0.974,0.974,0,0,0,0-1.406,0.943,0.943,0,0,0-.7-0.3h-2a0.9,0.9,0,0,0-.42.1,1.082,1.082,0,0,0-.35.273,1.106,1.106,0,0,0-.2.391,0.813,0.813,0,0,0-.01.438l2,10a0.962,0.962,0,0,0,.35.57A0.951,0.951,0,0,0,1590,53h10A0.951,0.951,0,0,0,1600.63,52.773Zm-2.93-9.07a0.974,0.974,0,0,1-1.4,0,0.955,0.955,0,0,1-.3-0.7V40a0.956,0.956,0,0,0-.3-0.7,0.974,0.974,0,0,0-1.4,0,0.956,0.956,0,0,0-.3.7v3a0.955,0.955,0,0,1-.3.7,0.974,0.974,0,0,1-1.4,0,0.955,0.955,0,0,1-.3-0.7V40a2.872,2.872,0,0,1,.88-2.125,3,3,0,0,1,4.24.008A2.88,2.88,0,0,1,1598,40v3A0.955,0.955,0,0,1,1597.7,43.7Z" transform="translate(-1587.03 -37)"/>
</svg>
