<svg xmlns="http://www.w3.org/2000/svg" width="16" height="12.91" viewBox="0 0 16 12.91">
  <defs>
    <style>
      .cls-1 {
        fill: #151515;
        fill-rule: evenodd;
      }
    </style>
  </defs>
  <path id="_-e-kz-twitter" data-name="-e-kz-twitter" class="cls-1" d="M305.8,3568.5c0.406,0,.8-0.02,1.18-0.05s0.721-.04,1.023-0.04a9.192,9.192,0,0,0,2.039-.68,7.041,7.041,0,0,0,1.664-1.14,5.814,5.814,0,0,0,1.047-1.18,7.108,7.108,0,0,0,.75-1.41,9.311,9.311,0,0,0,.438-1.74,8.713,8.713,0,0,0,.062-1.96,1.634,1.634,0,0,1,.078-0.53,2.127,2.127,0,0,1,.219-0.47c0.406-.5.659-0.82,0.758-0.94a0.564,0.564,0,0,0,.148-0.27,0.092,0.092,0,0,0,.094-0.09l0.609-.7H314.8l0.609-1.71-0.906.32a1.6,1.6,0,0,0-.375.14,0.663,0.663,0,0,0-.219.15c-0.156.06-.291,0.1-0.406,0.15s-0.25.1-.406,0.15a3.5,3.5,0,0,0-1.016-.6,5.471,5.471,0,0,0-1.172-.31,3.855,3.855,0,0,0-1.179.07,3.37,3.37,0,0,0-1.024.43,3.245,3.245,0,0,0-.8.6,2.013,2.013,0,0,0-.492.81,3.35,3.35,0,0,0-.218.8,2.217,2.217,0,0,0,.015.79,10.1,10.1,0,0,1-1.515-.32,8.408,8.408,0,0,1-1.4-.6,8.913,8.913,0,0,1-1.273-.84,7.343,7.343,0,0,1-1.11-1.13l-0.406-.5-0.3.6a3.9,3.9,0,0,0-.422,1.16,2.925,2.925,0,0,0,.016,1.24,1.634,1.634,0,0,0,.078.53,2.127,2.127,0,0,0,.219.47l-0.391-.11v0.61a3.731,3.731,0,0,0,.149,1,3.354,3.354,0,0,0,.445,1c0.052,0.06.107,0.13,0.164,0.21a1.6,1.6,0,0,0,.242.29h-0.2l0.2,0.8a3.085,3.085,0,0,0,.711,1.27,3.689,3.689,0,0,0,1.086.82c-0.4.16-.792,0.3-1.188,0.43s-0.864.28-1.406,0.48l-1,.3,0.891,0.5a7.64,7.64,0,0,1,1.109.47,6.331,6.331,0,0,0,1.8.53c0.344,0.05.693,0.1,1.047,0.14a9.32,9.32,0,0,0,1.047.06h0Z" transform="translate(-299.906 -3555.59)"/>
</svg>
