<svg xmlns="http://www.w3.org/2000/svg" width="16" height="14" viewBox="0 0 16 14">
  <defs>
    <style>
      .cls-1 {
        fill: #151515;
        fill-rule: evenodd;
      }
    </style>
  </defs>
  <path id="_-e-kz-heart" data-name="-e-kz-heart" class="cls-1" d="M1262.56,1684.33a4.524,4.524,0,0,1,.98,1.5,4.64,4.64,0,0,1,.33,1.71,4.5,4.5,0,0,1-.33,1.69,4.33,4.33,0,0,1-.98,1.5,0.045,0.045,0,0,0-.03.04l-6.64,6.23-6.68-6.23-0.03-.04a4.581,4.581,0,0,1-1.31-3.19,4.539,4.539,0,0,1,2.77-4.2,4.447,4.447,0,0,1,1.73-.34,4.4,4.4,0,0,1,3.09,1.27,2.741,2.741,0,0,1,.41.32,3.547,3.547,0,0,1,.41-0.32,4.4,4.4,0,0,1,3.09-1.27,4.412,4.412,0,0,1,1.73.34,4.606,4.606,0,0,1,1.46.99h0Zm-6.67,9.94,5.25-4.96a2.415,2.415,0,0,0,.73-1.78,2.476,2.476,0,0,0-.73-1.8,2.342,2.342,0,0,0-.82-0.54,2.371,2.371,0,0,0-.95-0.19,2.454,2.454,0,0,0-.96.19,2.1,2.1,0,0,0-.8.54,0.022,0.022,0,0,1-.02.02,0.022,0.022,0,0,0-.02.02,0.043,0.043,0,0,0-.03.03l-1.03.86a0.1,0.1,0,0,1-.05.04,0.488,0.488,0,0,0-.07.03,0.47,0.47,0,0,1-.09.06,0.793,0.793,0,0,1-.09.04,0.145,0.145,0,0,1-.07.02c-0.02.01-.05,0.01-0.08,0.02a0.44,0.44,0,0,0-.1.02,0.292,0.292,0,0,1-.09.02,0.645,0.645,0,0,1-.2-0.03,1.284,1.284,0,0,1-.21-0.07,0.037,0.037,0,0,1-.03-0.01,0.413,0.413,0,0,1-.11-0.07c-0.04-.02-0.07-0.04-0.11-0.06l-1.01-.87a0.053,0.053,0,0,1-.02-0.03h-0.01a0.022,0.022,0,0,0-.02-0.02c-0.01,0-.01-0.01-0.01-0.02a2.436,2.436,0,0,0-1.77-.7,2.4,2.4,0,0,0-1.76.7,2.535,2.535,0,0,0,0,3.58Z" transform="translate(-1247.88 -1683)"/>
</svg>
