<svg xmlns="http://www.w3.org/2000/svg" width="16" height="16" viewBox="0 0 16 16">
  <defs>
    <style>
      .cls-1 {
        fill: #151515;
        fill-rule: evenodd;
      }
    </style>
  </defs>
  <path id="_-e-kz-user" data-name="-e-kz-user" class="cls-1" d="M1559.09,47.809a8.539,8.539,0,0,1,1.48,1.7,8.232,8.232,0,0,1,.96,2.055,7.739,7.739,0,0,1,.34,2.313h-16a8.072,8.072,0,0,1,.34-2.312,7.921,7.921,0,0,1,.97-2.055,8.181,8.181,0,0,1,1.47-1.7,8.6,8.6,0,0,1,1.92-1.234,5.409,5.409,0,0,1-1.22-1.625,4.553,4.553,0,0,1-.48-2.078,5,5,0,0,1,.39-1.969,4.943,4.943,0,0,1,2.64-2.641,5.163,5.163,0,0,1,3.94,0,5.1,5.1,0,0,1,1.58,1.063,4.968,4.968,0,0,1,1.45,3.547,4.553,4.553,0,0,1-.48,2.078,5.248,5.248,0,0,1-1.22,1.625,8.164,8.164,0,0,1,1.92,1.234h0Zm-7.36-2.8a3.094,3.094,0,1,0-.86-2.141A2.906,2.906,0,0,0,1551.73,45.012Zm-3.45,6.859h11.29a6.893,6.893,0,0,0-.9-1.594,6.157,6.157,0,0,0-1.31-1.266,6.442,6.442,0,0,0-1.63-.844,5.812,5.812,0,0,0-1.86-.3,5.9,5.9,0,0,0-1.86.3,6.378,6.378,0,0,0-1.62.844,6.211,6.211,0,0,0-1.27,1.266,6.036,6.036,0,0,0-.84,1.594h0Z" transform="translate(-1545.88 -37.875)"/>
</svg>
