<svg xmlns="http://www.w3.org/2000/svg" width="9" height="12" viewBox="0 0 9 12">
  <defs>
    <style>
      .cls-1 {
        fill: #111;
        fill-rule: evenodd;
      }
    </style>
  </defs>
  <path id="_-e-kz-fire" data-name="-e-kz-fire" class="cls-1" d="M642.91,2194.78a17.5,17.5,0,0,1,1.072,1.72,16.2,16.2,0,0,1,1.049,2.29,7.019,7.019,0,0,1,.469,2.46,4.4,4.4,0,0,1-.352,1.75,4.814,4.814,0,0,1-.972,1.43,4.756,4.756,0,0,1-1.43.97,4.53,4.53,0,0,1-3.492,0,4.743,4.743,0,0,1-1.43-.97,4.814,4.814,0,0,1-.972-1.43,4.4,4.4,0,0,1-.352-1.75c0.016-.3.051-0.66,0.105-1.1a5.766,5.766,0,0,1,.276-1.26,3.113,3.113,0,0,1,.58-1.04,1.256,1.256,0,0,1,.984-0.42,1.215,1.215,0,0,1,.334.05q0.159,0.045.276,0.09a2.836,2.836,0,0,0,.392.18,0.815,0.815,0,0,0,.276.05,0.711,0.711,0,0,0,.609-0.37,3.02,3.02,0,0,0,.393-0.89,7,7,0,0,0,.216-1.08,9.35,9.35,0,0,0,.059-0.96,0.672,0.672,0,0,1,.152-0.42,0.711,0.711,0,0,1,.375-0.26,0.621,0.621,0,0,1,.44-0.05,0.657,0.657,0,0,1,.381.28c0.039,0.04.226,0.28,0.562,0.73h0Zm-0.75,9.24a3.147,3.147,0,0,0,.961-0.65,2.96,2.96,0,0,0,.645-0.96,2.9,2.9,0,0,0,.234-1.16,4.871,4.871,0,0,0-.164-1.22,10.946,10.946,0,0,0-.41-1.23c-0.164-.41-0.344-0.8-0.539-1.19s-0.368-.75-0.539-1.08a5.734,5.734,0,0,1-.3.96,3.436,3.436,0,0,1-.492.87,2.786,2.786,0,0,1-.727.63,2.185,2.185,0,0,1-1.019.23,3.241,3.241,0,0,1-.639-0.06,2.729,2.729,0,0,1-.639-0.23,2.459,2.459,0,0,0-.322.91,10.8,10.8,0,0,0-.205,1.41,2.9,2.9,0,0,0,.234,1.16,2.945,2.945,0,0,0,.645.96,3.147,3.147,0,0,0,.961.65,3.04,3.04,0,0,0,2.32,0h0Zm0.27-2.28a4,4,0,0,0-.229-0.88,2.55,2.55,0,0,0-.463-0.77,0.971,0.971,0,0,0-1.476,0,2.53,2.53,0,0,0-.463.77,3.945,3.945,0,0,0-.229.88,4.443,4.443,0,0,0-.07.63q0,0.165.018,0.39a1.162,1.162,0,0,0,.134.44,0.936,0.936,0,0,0,.364.3,1.345,1.345,0,0,0,.761.07h0.668a1.983,1.983,0,0,0,.616-0.18,0.964,0.964,0,0,0,.439-1.02,4.443,4.443,0,0,0-.07-0.63h0Z" transform="translate(-636.5 -2193.75)"/>
</svg>
