<svg xmlns="http://www.w3.org/2000/svg" width="16" height="16" viewBox="0 0 16 16">
  <defs>
    <style>
      .cls-1 {
        fill: #151515;
        fill-rule: evenodd;
      }
    </style>
  </defs>
  <path id="_-e-kz-search-space" data-name="-e-kz-search-space" class="cls-1" d="M1215.33,1693.53a6.246,6.246,0,0,0,3.2-3.2,6.01,6.01,0,0,0,0-4.66,6.246,6.246,0,0,0-3.2-3.2,6.01,6.01,0,0,0-4.66,0,6.246,6.246,0,0,0-3.2,3.2,6.01,6.01,0,0,0,0,4.66,6.246,6.246,0,0,0,3.2,3.2,6.01,6.01,0,0,0,4.66,0h0Zm-0.78-9.22a4,4,0,0,1,2.14,2.14,4.03,4.03,0,0,1,0,3.1,4,4,0,0,1-2.14,2.14,4.03,4.03,0,0,1-3.1,0,4,4,0,0,1-2.14-2.14,4.03,4.03,0,0,1,0-3.1,4,4,0,0,1,2.14-2.14,4.03,4.03,0,0,1,3.1,0h0Zm8.15,13.39a0.988,0.988,0,0,1-.35.22,0.806,0.806,0,0,1-.7,0,0.988,0.988,0,0,1-.35-0.22l-3-3a0.99,0.99,0,1,1,1.4-1.4l3,3a0.967,0.967,0,0,1,0,1.4h0Z" transform="translate(-1207 -1682)"/>
</svg>
