<svg xmlns="http://www.w3.org/2000/svg" width="10" height="5.63" viewBox="0 0 10 5.63">
  <defs>
    <style>
      .cls-1 {
        fill: #151515;
        fill-rule: evenodd;
      }
    </style>
  </defs>
  <path id="_-e-kz-angle-down" data-name="-e-kz-angle-down" class="cls-1" d="M1418,3564.75a0.6,0.6,0,0,0,.24-0.05,0.811,0.811,0,0,0,.2-0.14l4.37-4.37a0.6,0.6,0,0,0,0-.88,0.593,0.593,0,0,0-.87,0l-3.94,3.94-3.94-3.94a0.593,0.593,0,0,0-.87,0,0.6,0.6,0,0,0,0,.88l4.37,4.37a0.811,0.811,0,0,0,.2.14,0.6,0.6,0,0,0,.24.05h0Z" transform="translate(-1413 -3559.12)"/>
</svg>
