<svg xmlns="http://www.w3.org/2000/svg" width="12.03" height="12.03" viewBox="0 0 12.03 12.03">
  <defs>
    <style>
      .cls-1 {
        fill: #151515;
        fill-rule: evenodd;
      }
    </style>
  </defs>
  <path id="_-e-kz-number-one" data-name="-e-kz-number-one" class="cls-1" d="M1325.34,1665l0.63,1.95a0.646,0.646,0,0,1-.01.51,0.759,0.759,0,0,1-.36.39l-1.82.92-0.92,1.82a0.863,0.863,0,0,1-.29.31,0.746,0.746,0,0,1-.38.1,0.487,0.487,0,0,1-.12-0.01,0.5,0.5,0,0,1-.12-0.02l-1.94-.64-1.93.64a0.744,0.744,0,0,1-.53-0.02,0.779,0.779,0,0,1-.38-0.36l-0.92-1.82-1.83-.92a0.74,0.74,0,0,1-.35-0.39,0.749,0.749,0,0,1-.03-0.51l0.64-1.95-0.64-1.94a0.717,0.717,0,0,1,.02-0.52,0.759,0.759,0,0,1,.36-0.39l1.82-.92,0.92-1.82a0.783,0.783,0,0,1,.39-0.35,0.693,0.693,0,0,1,.51-0.02l1.95,0.63,1.93-.63a0.715,0.715,0,0,1,.52.02,0.723,0.723,0,0,1,.38.35l0.93,1.82,1.83,0.92a0.783,0.783,0,0,1,.35.39,0.717,0.717,0,0,1,.02.52Zm-1.5.23a0.852,0.852,0,0,1-.03-0.23,0.538,0.538,0,0,1,.04-0.22l0.52-1.57-1.48-.75a0.788,0.788,0,0,1-.33-0.33l-0.75-1.48-1.57.52a0.8,0.8,0,0,1-.23.03,0.78,0.78,0,0,1-.22-0.03l-1.57-.52-0.75,1.48a0.788,0.788,0,0,1-.33.33l-1.48.75,0.51,1.56a0.681,0.681,0,0,1,0,.46l-0.51,1.58,1.47,0.75a0.761,0.761,0,0,1,.19.12,0.586,0.586,0,0,1,.13.19l0.75,1.48,1.57-.52c0.04-.01.07-0.01,0.12-0.02a0.448,0.448,0,0,1,.11-0.01,0.487,0.487,0,0,1,.12.01c0.04,0.01.07,0.01,0.11,0.02l1.57,0.52,0.75-1.48a1.33,1.33,0,0,1,.14-0.19,0.761,0.761,0,0,1,.19-0.12l1.48-.75Zm-3.43-2.36a0.72,0.72,0,0,1,.26.26,0.779,0.779,0,0,1,.09.37v3a0.767,0.767,0,0,1-.22.53,0.75,0.75,0,0,1-1.28-.53v-1.79l-0.41.21a0.776,0.776,0,0,1-.58.03,0.686,0.686,0,0,1-.43-0.37,0.706,0.706,0,0,1-.04-0.57,0.74,0.74,0,0,1,.37-0.44l1.5-.75a0.946,0.946,0,0,1,.37-0.08,0.689,0.689,0,0,1,.37.13h0Z" transform="translate(-1314 -1659)"/>
</svg>
