<svg xmlns="http://www.w3.org/2000/svg" width="11.969" height="11.97" viewBox="0 0 11.969 11.97">
  <defs>
    <style>
      .cls-1 {
        fill: #111;
        fill-rule: evenodd;
      }
    </style>
  </defs>
  <path id="nuber-one" class="cls-1" d="M308.332,2199l0.628-1.94a0.753,0.753,0,0,0-.372-0.9l-1.816-.92-0.928-1.82a0.739,0.739,0,0,0-.9-0.37l-1.941.63-1.941-.63a0.738,0.738,0,0,0-.9.37l-0.928,1.82-1.817.92a0.752,0.752,0,0,0-.371.9l0.629,1.94-0.629,1.94a0.752,0.752,0,0,0,.371.9l1.817,0.93,0.928,1.82a0.76,0.76,0,0,0,.9.37l1.941-.63,1.941,0.63a0.91,0.91,0,0,0,.231.03,0.753,0.753,0,0,0,.667-0.4l0.928-1.82,1.816-.93a0.753,0.753,0,0,0,.372-0.9Zm-1.5.23,0.507,1.57-1.465.75a0.731,0.731,0,0,0-.326.32l-0.748,1.47-1.564-.51a0.684,0.684,0,0,0-.461,0l-1.564.51-0.749-1.47a0.721,0.721,0,0,0-.326-0.32l-1.464-.75,0.507-1.57a0.738,0.738,0,0,0,0-.46l-0.507-1.56,1.464-.75a0.743,0.743,0,0,0,.326-0.33l0.749-1.46,1.564,0.51a0.9,0.9,0,0,0,.461,0l1.564-.51,0.748,1.46a0.753,0.753,0,0,0,.326.33l1.465,0.75-0.507,1.56A0.738,0.738,0,0,0,306.832,2199.23Zm-3.433-2.37a0.784,0.784,0,0,0-.729-0.03l-1.5.75a0.749,0.749,0,1,0,.669,1.34l0.414-.21v1.79a0.749,0.749,0,1,0,1.5,0v-3A0.757,0.757,0,0,0,303.4,2196.86Z" transform="translate(-297.031 -2193.03)"/>
</svg>
