<svg xmlns="http://www.w3.org/2000/svg" width="9.812" height="11.97" viewBox="0 0 9.812 11.97">
  <defs>
    <style>
      .cls-1 {
        fill: #111;
        fill-rule: evenodd;
      }
    </style>
  </defs>
  <path id="_-e-kz-bolt-line" data-name="-e-kz-bolt-line" class="cls-1" d="M508.759,1108a0.7,0.7,0,0,0,.263-0.06,0.742,0.742,0,0,0,.264-0.24l6.75-6a0.546,0.546,0,0,0,.223-0.31,0.568,0.568,0,0,0,0-.36,0.752,0.752,0,0,0-.205-0.32,0.819,0.819,0,0,0-.323-0.21l-1.652-.53,0.609-3.07a0.677,0.677,0,0,0-.046-0.43,0.72,0.72,0,0,0-.258-0.32,0.821,0.821,0,0,0-.821,0l-6.75,4.5a0.684,0.684,0,0,0-.269.32,0.625,0.625,0,0,0-.035.43,0.785,0.785,0,0,0,.217.38,0.8,0.8,0,0,0,.38.22l2.25,0.53-1.277,4.5a0.581,0.581,0,0,0-.012.47,0.622,0.622,0,0,0,.317.35,0.511,0.511,0,0,0,.158.1,0.524,0.524,0,0,0,.217.05h0Zm0.3-7.05,3.821-2.55-0.375,1.95a0.738,0.738,0,0,0,.082.53,0.6,0.6,0,0,0,.363.3l1.055,0.38-3.821,3.44,0.821-2.78a2.86,2.86,0,0,0-.018-0.32,0.433,0.433,0,0,0-.135-0.27,0.464,0.464,0,0,0-.169-0.24,0.965,0.965,0,0,0-.276-0.14Z" transform="translate(-506.5 -1096.03)"/>
</svg>
