<svg xmlns="http://www.w3.org/2000/svg" width="9" height="12" viewBox="0 0 9 12">
  <defs>
    <style>
      .cls-1 {
        fill: #111;
        fill-rule: evenodd;
      }
    </style>
  </defs>
  <path id="_-e-kz-fire" data-name="-e-kz-fire" class="cls-1" d="M512.919,1843.03a17.691,17.691,0,0,1,1.072,1.72,16.308,16.308,0,0,1,1.049,2.29,7.042,7.042,0,0,1,.469,2.46,4.4,4.4,0,0,1-.352,1.75,4.814,4.814,0,0,1-.972,1.43,4.756,4.756,0,0,1-1.43.97,4.53,4.53,0,0,1-3.492,0,4.743,4.743,0,0,1-1.43-.97,4.817,4.817,0,0,1-.973-1.43,4.412,4.412,0,0,1-.351-1.75c0.015-.3.051-0.66,0.1-1.1a5.766,5.766,0,0,1,.276-1.26,3.113,3.113,0,0,1,.58-1.04,1.256,1.256,0,0,1,.984-0.42,1.215,1.215,0,0,1,.334.05c0.106,0.03.2,0.06,0.275,0.09a2.9,2.9,0,0,0,.393.18,0.873,0.873,0,0,0,.275.06,0.723,0.723,0,0,0,.61-0.38,3.048,3.048,0,0,0,.392-0.88,7.378,7.378,0,0,0,.217-1.09,9.35,9.35,0,0,0,.059-0.96,0.672,0.672,0,0,1,.152-0.42,0.711,0.711,0,0,1,.375-0.26,0.62,0.62,0,0,1,.44-0.05,0.631,0.631,0,0,1,.38.29q0.058,0.045.563,0.72h0Zm-0.75,9.24a2.99,2.99,0,0,0,.961-0.65,2.942,2.942,0,0,0,.644-0.96,2.881,2.881,0,0,0,.235-1.16,4.871,4.871,0,0,0-.164-1.22,10.946,10.946,0,0,0-.41-1.23c-0.164-.4-0.344-0.8-0.539-1.19s-0.368-.75-0.54-1.08a5.638,5.638,0,0,1-.3.96,3.436,3.436,0,0,1-.492.87,2.8,2.8,0,0,1-.727.63,2.071,2.071,0,0,1-1.02.23,3.238,3.238,0,0,1-.638-0.06,2.729,2.729,0,0,1-.639-0.23,2.441,2.441,0,0,0-.322.91,11.057,11.057,0,0,0-.2,1.41,2.9,2.9,0,0,0,.234,1.16,2.929,2.929,0,0,0,.645.96,3.01,3.01,0,0,0,3.281.65h0Zm0.269-2.28a4,4,0,0,0-.228-0.88,2.55,2.55,0,0,0-.463-0.77,0.971,0.971,0,0,0-1.476,0,2.53,2.53,0,0,0-.463.77,3.945,3.945,0,0,0-.229.88,4.4,4.4,0,0,0-.07.64c0,0.11.006,0.23,0.017,0.38a1.182,1.182,0,0,0,.135.44,0.925,0.925,0,0,0,.363.3,1.35,1.35,0,0,0,.762.07h0.668a2.182,2.182,0,0,0,.615-0.17,0.982,0.982,0,0,0,.44-1.02,4.439,4.439,0,0,0-.071-0.64h0Z" transform="translate(-506.5 -1842)"/>
</svg>
