<svg xmlns="http://www.w3.org/2000/svg" width="10" height="5.63" viewBox="0 0 10 5.63">
  <defs>
    <style>
      .cls-1 {
        fill: #151515;
        fill-rule: evenodd;
      }
    </style>
  </defs>
  <path id="_-e-kz-angle-down" data-name="-e-kz-angle-down" class="cls-1" d="M608,4093.75a0.588,0.588,0,0,0,.239-0.05,0.743,0.743,0,0,0,.2-0.14l4.375-4.37a0.613,0.613,0,0,0,0-.88,0.6,0.6,0,0,0-.878,0L608,4092.25l-3.936-3.94a0.6,0.6,0,0,0-.878,0,0.613,0.613,0,0,0,0,.88l4.375,4.37a0.743,0.743,0,0,0,.2.14,0.588,0.588,0,0,0,.239.05h0Z" transform="translate(-603 -4088.12)"/>
</svg>
