<svg xmlns="http://www.w3.org/2000/svg" width="16" height="14" viewBox="0 0 16 14">
  <defs>
    <style>
      .cls-1 {
        fill: #151515;
        fill-rule: evenodd;
      }
    </style>
  </defs>
  <path id="_-e-kz-heart" data-name="-e-kz-heart" class="cls-1" d="M658.688,1183.33a4.567,4.567,0,0,1,.984,1.5,4.658,4.658,0,0,1,.328,1.71,4.517,4.517,0,0,1-.328,1.69,4.37,4.37,0,0,1-.984,1.5,0.046,0.046,0,0,0-.032.04l-6.64,6.23-6.672-6.23-0.032-.04a4.37,4.37,0,0,1-.984-1.5,4.517,4.517,0,0,1-.328-1.69,4.658,4.658,0,0,1,.328-1.71,4.538,4.538,0,0,1,2.445-2.49,4.408,4.408,0,0,1,1.727-.34,4.328,4.328,0,0,1,1.672.33,4.417,4.417,0,0,1,1.422.94c0.01,0,.146.11,0.406,0.32,0.26-.21.4-0.32,0.406-0.32a4.417,4.417,0,0,1,1.422-.94,4.328,4.328,0,0,1,1.672-.33,4.408,4.408,0,0,1,1.727.34,4.523,4.523,0,0,1,1.461.99h0Zm-6.672,9.94,5.25-4.96a2.422,2.422,0,0,0,.734-1.78,2.483,2.483,0,0,0-.734-1.8,2.516,2.516,0,0,0-1.766-.73,2.438,2.438,0,0,0-.961.19,2.215,2.215,0,0,0-.8.54,0.017,0.017,0,0,1-.015.02,0.018,0.018,0,0,0-.016.02,0.044,0.044,0,0,0-.031.03l-1.031.86a0.094,0.094,0,0,1-.055.04c-0.026.01-.05,0.02-0.07,0.03a0.765,0.765,0,0,1-.086.06c-0.026.01-.055,0.03-0.086,0.04a0.167,0.167,0,0,1-.071.02,0.349,0.349,0,0,0-.085.03,0.3,0.3,0,0,0-.094.01,0.323,0.323,0,0,1-.094.02,0.66,0.66,0,0,1-.2-0.03,0.982,0.982,0,0,1-.2-0.07,0.041,0.041,0,0,1-.032-0.01,0.585,0.585,0,0,1-.117-0.07c-0.036-.02-0.07-0.04-0.1-0.06l-1.016-.87a0.045,0.045,0,0,1-.016-0.03H650.3a0.018,0.018,0,0,0-.016-0.02,0.017,0.017,0,0,1-.015-0.02,2.515,2.515,0,0,0-3.532,3.58Z" transform="translate(-644 -1182)"/>
</svg>
