<svg xmlns="http://www.w3.org/2000/svg" width="11.938" height="12.03" viewBox="0 0 11.938 12.03">
  <defs>
    <style>
      .cls-1 {
        fill: #151515;
        fill-rule: evenodd;
      }
    </style>
  </defs>
  <path id="_-e-kz-star-line" data-name="-e-kz-star-line" class="cls-1" d="M694.759,1854a0.656,0.656,0,0,0,.234-0.05c0.078-.03.176-0.06,0.293-0.1a0.87,0.87,0,0,0,.223-0.38,0.842,0.842,0,0,0,0-.44l-1.348-3.97,2.543-1.96a0.519,0.519,0,0,0,.229-0.35,1.114,1.114,0,0,0,0-.47,0.726,0.726,0,0,0-.679-0.53h-3.223l-1.348-3.3a0.542,0.542,0,0,0-.257-0.34,0.9,0.9,0,0,0-.422-0.11,0.933,0.933,0,0,0-.428.11,0.82,0.82,0,0,0-.322.34l-1.278,3.3h-3.222a0.729,0.729,0,0,0-.68.53,0.542,0.542,0,0,0-.023.44,1.029,1.029,0,0,0,.257.38l2.625,1.96-1.359,3.97a0.542,0.542,0,0,0-.023.44,1.029,1.029,0,0,0,.257.38,0.5,0.5,0,0,0,.381.18,1.019,1.019,0,0,0,.44-0.1l3.375-2.03,3.375,2.03a0.34,0.34,0,0,0,.158.06,1.492,1.492,0,0,0,.217.01h0Zm-3.75-3.75a1.492,1.492,0,0,0-.217.01,0.34,0.34,0,0,0-.158.06l-2.028,1.21,0.832-2.56a0.542,0.542,0,0,0,.024-0.44,1.044,1.044,0,0,0-.258-0.38l-1.195-.9h1.5a0.9,0.9,0,0,0,.422-0.11,0.523,0.523,0,0,0,.257-0.33l0.821-2.03,0.82,2.03a0.521,0.521,0,0,0,.258.33,0.9,0.9,0,0,0,.422.11h1.5l-1.2.9a0.514,0.514,0,0,0-.228.35,1.131,1.131,0,0,0-.006.47l0.832,2.56-2.027-1.21a0.34,0.34,0,0,0-.158-0.06,1.5,1.5,0,0,0-.217-0.01h0Z" transform="translate(-685.031 -1842)"/>
</svg>
