<svg xmlns="http://www.w3.org/2000/svg" width="15.969" height="16" viewBox="0 0 15.969 16">
  <defs>
    <style>
      .cls-1 {
        fill: #151515;
        fill-rule: evenodd;
      }
    </style>
  </defs>
  <path id="_-e-kz-bag" data-name="-e-kz-bag" class="cls-1" d="M337.633,37.773a1.015,1.015,0,0,0,.351-0.57l2-10a0.889,0.889,0,0,0-.015-0.437,1.1,1.1,0,0,0-.2-0.391,0.9,0.9,0,0,0-.344-0.281A1,1,0,0,0,339,26h-2a1,1,0,0,0,0,2h0.781l-1.593,8h-8.376l-1.593-8H327a1,1,0,0,0,0-2h-2a0.931,0.931,0,0,0-.422.1,1.049,1.049,0,0,0-.344.273,1.1,1.1,0,0,0-.2.391,0.889,0.889,0,0,0-.015.438l2,10a1.015,1.015,0,0,0,.351.57A0.963,0.963,0,0,0,327,38h10A0.964,0.964,0,0,0,337.633,37.773ZM334.7,28.7A1,1,0,0,1,333,28V25a1,1,0,0,0-2,0v3a1,1,0,0,1-2,0V25a3,3,0,0,1,6,0v3A0.96,0.96,0,0,1,334.7,28.7Z" transform="translate(-324.031 -22)"/>
</svg>
