<svg xmlns="http://www.w3.org/2000/svg" width="16" height="16" viewBox="0 0 16 16">
  <defs>
    <style>
      .cls-1 {
        fill: #151515;
        fill-rule: evenodd;
      }
    </style>
  </defs>
  <path id="_-e-kz-facebook" data-name="-e-kz-facebook" class="cls-1" d="M572.3,3987.7a2.2,2.2,0,0,1,.7,1.6v11.4a2.261,2.261,0,0,1-2.3,2.3h-3.8v-5.7h2.3l0.5-2.8h-2.8v-1.91h2.8v-2.79h-2.8a2.731,2.731,0,0,0-1.968.83,2.673,2.673,0,0,0-.844,1.96v1.91H562.2v2.8H564v5.7h-4.7a2.2,2.2,0,0,1-1.594-.71,2.324,2.324,0,0,1-.7-1.7V3989.3a2.4,2.4,0,0,1,2.3-2.3H570.7A2.19,2.19,0,0,1,572.3,3987.7Z" transform="translate(-557 -3987)"/>
</svg>
