<svg xmlns="http://www.w3.org/2000/svg" width="98" height="18" viewBox="0 0 98 18">
  <defs>
    <style>
      .cls-1 {
        fill: #151515;
        fill-rule: evenodd;
      }
    </style>
  </defs>
  <path id="_-e-logo_zonex" data-name="-e-logo zonex" class="cls-1" d="M66.837,22.817H81.077L72.7,36.726h7.538V40H66l8.376-13.091H66.837V22.817ZM93.641,40a9.108,9.108,0,0,1-9.213-9A8.827,8.827,0,0,1,84.58,29.4l4.8,4.165a5.033,5.033,0,0,0,4.264,2.339,4.91,4.91,0,1,0,0-9.818A5.023,5.023,0,0,0,89.28,28.6l-3.2-2.737A9.262,9.262,0,0,1,93.641,22,9,9,0,1,1,93.641,40Zm14.239,0V31.817l4.188,2.454V40H107.88Zm0-13.091L123.794,40V22h-4.188v9L107.88,22v4.909ZM142.222,22H129.658V40h12.564V36.726h-8.376V32.635h7.538V29.362h-7.538v-4.09h8.376V22ZM164,40h-5.026l-4.188-5.625L150.6,40h-5.026l6.7-9-6.7-9H150.6l4.188,5.625L158.974,22H164l-6.7,9Z" transform="translate(-66 -22)"/>
</svg>
