<svg xmlns="http://www.w3.org/2000/svg" width="12.031" height="12.03" viewBox="0 0 12.031 12.03">
  <defs>
    <style>
      .cls-1 {
        fill: #151515;
        fill-rule: evenodd;
      }
    </style>
  </defs>
  <path id="kz-number-one" class="cls-1" d="M516.341,1469l0.633,1.95a0.682,0.682,0,0,1-.012.51,0.761,0.761,0,0,1-.363.39l-1.817.92-0.926,1.82a0.847,0.847,0,0,1-.287.31,0.744,0.744,0,0,1-.381.1,0.463,0.463,0,0,1-.117-0.01,0.478,0.478,0,0,1-.117-0.02l-1.945-.64-1.934.64a0.719,0.719,0,0,1-.521-0.02,0.734,0.734,0,0,1-.381-0.36l-0.926-1.82-1.828-.92a0.773,0.773,0,0,1-.352-0.39,0.719,0.719,0,0,1-.023-0.51l0.633-1.95-0.633-1.94a0.7,0.7,0,0,1,.012-0.52,0.757,0.757,0,0,1,.363-0.39l1.816-.92,0.926-1.82a0.753,0.753,0,0,1,.387-0.35,0.706,0.706,0,0,1,.515-0.02l1.946,0.63,1.933-.63a0.722,0.722,0,0,1,.522.02,0.756,0.756,0,0,1,.381.35l0.926,1.82,1.828,0.92a0.767,0.767,0,0,1,.351.39,0.744,0.744,0,0,1,.024.52Zm-1.5.23a0.719,0.719,0,0,1-.035-0.23,0.512,0.512,0,0,1,.047-0.22l0.515-1.57-1.476-.75a1.045,1.045,0,0,1-.188-0.14,1,1,0,0,1-.141-0.19l-0.75-1.48-1.57.52a0.885,0.885,0,0,1-.457,0l-1.57-.52-0.75,1.48a1,1,0,0,1-.141.19,1.073,1.073,0,0,1-.187.14l-1.477.75,0.5,1.56a0.586,0.586,0,0,1,0,.46l-0.5,1.58,1.465,0.75a0.743,0.743,0,0,1,.193.12,0.638,0.638,0,0,1,.135.19l0.75,1.48,1.57-.52c0.032-.01.069-0.01,0.112-0.02a0.688,0.688,0,0,1,.234,0c0.035,0.01.072,0.01,0.111,0.02l1.571,0.52,0.75-1.48a1.034,1.034,0,0,1,.14-0.19,0.67,0.67,0,0,1,.188-0.12l1.476-.75Zm-3.434-2.36a0.665,0.665,0,0,1,.258.26,0.759,0.759,0,0,1,.094.37v3a0.736,0.736,0,0,1-.223.53,0.742,0.742,0,0,1-1.055,0,0.735,0.735,0,0,1-.222-0.53v-1.79l-0.41.21a0.764,0.764,0,0,1-.575.03,0.688,0.688,0,0,1-.433-0.37,0.7,0.7,0,0,1-.041-0.57,0.725,0.725,0,0,1,.369-0.44l1.5-.75a0.948,0.948,0,0,1,.375-0.08,0.684,0.684,0,0,1,.363.13h0Z" transform="translate(-505 -1463)"/>
</svg>
