<svg xmlns="http://www.w3.org/2000/svg" width="15.906" height="16" viewBox="0 0 15.906 16">
  <defs>
    <style>
      .cls-1 {
        fill: #151515;
        fill-rule: evenodd;
      }
    </style>
  </defs>
  <path id="_-e-kz-instagram" data-name="-e-kz-instagram" class="cls-1" d="M618.281,3987.7a2.009,2.009,0,0,1,.625,1.6v11.4a2.262,2.262,0,0,1-2.312,2.3H605.3a2.237,2.237,0,0,1-1.594-.67,2.3,2.3,0,0,1-.7-1.74V3989.3a2.4,2.4,0,0,1,2.3-2.3H616.7A2.138,2.138,0,0,1,618.281,3987.7Zm-6.015,11.94a4.558,4.558,0,0,0,1.422-.95,4.671,4.671,0,0,0,.968-1.44,4.546,4.546,0,0,0-.968-4.94,4.732,4.732,0,0,0-1.438-.97,4.429,4.429,0,0,0-1.75-.34,4.382,4.382,0,0,0-1.766.36,4.558,4.558,0,0,0-1.422.95,4.671,4.671,0,0,0-.968,1.44,4.546,4.546,0,0,0,.968,4.94,4.732,4.732,0,0,0,1.438.97,4.591,4.591,0,0,0,3.516-.02h0Zm4.281-8.09a1.443,1.443,0,1,0-1.047.45A1.451,1.451,0,0,0,616.547,3991.55Zm-4.235,2.14a2.725,2.725,0,1,0,.688,1.81A2.444,2.444,0,0,0,612.312,3993.69Z" transform="translate(-603 -3987)"/>
</svg>
