<svg xmlns="http://www.w3.org/2000/svg" width="16" height="16" viewBox="0 0 16 16">
  <defs>
    <style>
      .cls-1 {
        fill: #151515;
        fill-rule: evenodd;
      }
    </style>
  </defs>
  <path id="_-e-kz-user" data-name="-e-kz-user" class="cls-1" d="M301.219,31.938a8.123,8.123,0,0,1,2.437,3.75A7.774,7.774,0,0,1,304,38H288a7.774,7.774,0,0,1,.344-2.312,8.123,8.123,0,0,1,2.437-3.75A8.3,8.3,0,0,1,292.7,30.7a5.376,5.376,0,0,1-1.226-1.625A4.577,4.577,0,0,1,291,27a5,5,0,1,1,10,0,4.577,4.577,0,0,1-.477,2.078A5.376,5.376,0,0,1,299.3,30.7a8.3,8.3,0,0,1,1.922,1.234h0Zm-7.36-2.8A3.1,3.1,0,1,0,293,27,2.906,2.906,0,0,0,293.859,29.141ZM290.406,36h11.3a6.7,6.7,0,0,0-.906-1.594,6.134,6.134,0,0,0-1.305-1.266,6.478,6.478,0,0,0-1.633-.844,5.968,5.968,0,0,0-3.718,0,6.219,6.219,0,0,0-1.618.844,6.008,6.008,0,0,0-1.273,1.266A5.851,5.851,0,0,0,290.406,36h0Z" transform="translate(-288 -22)"/>
</svg>
