<svg xmlns="http://www.w3.org/2000/svg" width="12.531" height="16" viewBox="0 0 12.531 16">
  <defs>
    <style>
      .cls-1 {
        fill: #151515;
        fill-rule: evenodd;
      }
    </style>
  </defs>
  <path id="_-e-kz-pinterest" data-name="-e-kz-pinterest" class="cls-1" d="M651,3995.7a2.815,2.815,0,0,1-.922-0.59,3.476,3.476,0,0,1-.7-0.98,4.089,4.089,0,0,1-.375-1.29,4.378,4.378,0,0,1,.094-1.54,5.105,5.105,0,0,1,.687-1.69,5.323,5.323,0,0,1,1.313-1.36,6.455,6.455,0,0,1,1.875-.92,8.32,8.32,0,0,1,2.437-.33,7.34,7.34,0,0,1,2.578.42,5.554,5.554,0,0,1,1.891,1.14,4.862,4.862,0,0,1,1.172,1.69,5.513,5.513,0,0,1,.453,2.05,5.2,5.2,0,0,1-.422,2.26,5.823,5.823,0,0,1-1.195,1.78,5.5,5.5,0,0,1-1.664,1.14,4.22,4.22,0,0,1-1.813.43q-0.156,0-1.133-.18a2.515,2.515,0,0,1-1.57-.93c-0.073.19-.187,0.52-0.344,0.98s-0.338.95-.547,1.49-0.432,1.05-.671,1.56a6.455,6.455,0,0,1-.735,1.26l-0.7.91-0.2-1.09a4.956,4.956,0,0,1,.062-1.07c0.063-.39.151-0.81,0.266-1.25s0.24-.9.375-1.36,0.266-.91.391-1.32q0.156-.54.468-1.71a3.883,3.883,0,0,0,.235-1.4,3.779,3.779,0,0,1-.211-1.21,1.8,1.8,0,0,1,.32-1,1.963,1.963,0,0,1,.758-0.93,1.746,1.746,0,0,1,.836-0.25,1.3,1.3,0,0,1,.867.29,1.136,1.136,0,0,1,.336.89,8.605,8.605,0,0,1-.328,1.43c-0.167.55-.323,1.07-0.469,1.57a0.981,0.981,0,0,0-.109.6,1.231,1.231,0,0,0,.2.51,1.456,1.456,0,0,0,.7.41,3.262,3.262,0,0,0,1,.19,1.981,1.981,0,0,0,1.2-.39,3.353,3.353,0,0,0,.922-0.97,5.078,5.078,0,0,0,.578-1.3,5.238,5.238,0,0,0,.188-1.34,3.445,3.445,0,0,0-.3-1.47,2.9,2.9,0,0,0-.844-1.1,4.086,4.086,0,0,0-1.3-.7,6.056,6.056,0,0,0-3.078-.06,4.47,4.47,0,0,0-1.281.51,3.525,3.525,0,0,0-.985.83,2.583,2.583,0,0,0-.515,1.19,4.643,4.643,0,0,0-.024,1.95,4.457,4.457,0,0,0,.43,1.35q0,0.075-.2.9h0Z" transform="translate(-648.969 -3987)"/>
</svg>
